<mxfile host="app.diagrams.net" modified="2023-04-08T08:03:44.573Z" agent="Mozilla/5.0 (Windows NT 10.0; Win64; x64) AppleWebKit/537.36 (KHTML, like Gecko) Chrome/112.0.0.0 Safari/537.36" etag="M23wHxHizIkg86D76vrG" version="21.1.5" type="device">
  <diagram id="R2lEEEUBdFMjLlhIrx00" name="Page-1">
    <mxGraphModel dx="1802" dy="846" grid="1" gridSize="10" guides="1" tooltips="1" connect="1" arrows="1" fold="1" page="1" pageScale="1" pageWidth="850" pageHeight="1100" math="0" shadow="0" extFonts="Permanent Marker^https://fonts.googleapis.com/css?family=Permanent+Marker">
      <root>
        <mxCell id="0" />
        <mxCell id="1" parent="0" />
        <mxCell id="JeDwQgU2jcd_ytCVNXyc-9" value="appartiene" style="shape=rhombus;perimeter=rhombusPerimeter;whiteSpace=wrap;html=1;align=center;" vertex="1" parent="1">
          <mxGeometry x="400" y="290" width="120" height="60" as="geometry" />
        </mxCell>
        <mxCell id="JeDwQgU2jcd_ytCVNXyc-18" value="" style="endArrow=none;html=1;rounded=0;entryX=0;entryY=0.5;entryDx=0;entryDy=0;exitX=1;exitY=0.5;exitDx=0;exitDy=0;" edge="1" parent="1" source="JeDwQgU2jcd_ytCVNXyc-9" target="JeDwQgU2jcd_ytCVNXyc-36">
          <mxGeometry relative="1" as="geometry">
            <mxPoint x="520" y="200" as="sourcePoint" />
            <mxPoint x="600" y="199.5" as="targetPoint" />
          </mxGeometry>
        </mxCell>
        <mxCell id="JeDwQgU2jcd_ytCVNXyc-19" value="1" style="resizable=0;html=1;whiteSpace=wrap;align=right;verticalAlign=bottom;" connectable="0" vertex="1" parent="JeDwQgU2jcd_ytCVNXyc-18">
          <mxGeometry x="1" relative="1" as="geometry">
            <mxPoint x="-10" y="1" as="offset" />
          </mxGeometry>
        </mxCell>
        <mxCell id="JeDwQgU2jcd_ytCVNXyc-22" value="" style="endArrow=none;html=1;rounded=0;exitX=0;exitY=0.5;exitDx=0;exitDy=0;entryX=1;entryY=0.5;entryDx=0;entryDy=0;" edge="1" parent="1" source="JeDwQgU2jcd_ytCVNXyc-9" target="JeDwQgU2jcd_ytCVNXyc-32">
          <mxGeometry relative="1" as="geometry">
            <mxPoint x="360" y="290" as="sourcePoint" />
            <mxPoint x="330" y="200" as="targetPoint" />
          </mxGeometry>
        </mxCell>
        <mxCell id="JeDwQgU2jcd_ytCVNXyc-23" value="N" style="resizable=0;html=1;whiteSpace=wrap;align=right;verticalAlign=bottom;" connectable="0" vertex="1" parent="JeDwQgU2jcd_ytCVNXyc-22">
          <mxGeometry x="1" relative="1" as="geometry">
            <mxPoint x="20" as="offset" />
          </mxGeometry>
        </mxCell>
        <mxCell id="JeDwQgU2jcd_ytCVNXyc-31" value="Utente" style="whiteSpace=wrap;html=1;align=center;" vertex="1" parent="1">
          <mxGeometry x="190" y="700" width="100" height="40" as="geometry" />
        </mxCell>
        <object label="Traduzione" data_creazione="gdrfgde" placeholders="1" id="JeDwQgU2jcd_ytCVNXyc-32">
          <mxCell style="whiteSpace=wrap;html=1;align=center;" vertex="1" parent="1">
            <mxGeometry x="190" y="300" width="100" height="40" as="geometry" />
          </mxCell>
        </object>
        <mxCell id="JeDwQgU2jcd_ytCVNXyc-68" style="edgeStyle=orthogonalEdgeStyle;rounded=0;orthogonalLoop=1;jettySize=auto;html=1;entryX=1;entryY=0.5;entryDx=0;entryDy=0;" edge="1" parent="1" source="JeDwQgU2jcd_ytCVNXyc-33" target="JeDwQgU2jcd_ytCVNXyc-31">
          <mxGeometry relative="1" as="geometry" />
        </mxCell>
        <mxCell id="JeDwQgU2jcd_ytCVNXyc-33" value="Traduttore" style="whiteSpace=wrap;html=1;align=center;" vertex="1" parent="1">
          <mxGeometry x="400" y="790" width="100" height="40" as="geometry" />
        </mxCell>
        <mxCell id="JeDwQgU2jcd_ytCVNXyc-67" style="edgeStyle=orthogonalEdgeStyle;rounded=0;orthogonalLoop=1;jettySize=auto;html=1;" edge="1" parent="1" source="JeDwQgU2jcd_ytCVNXyc-35" target="JeDwQgU2jcd_ytCVNXyc-31">
          <mxGeometry relative="1" as="geometry" />
        </mxCell>
        <mxCell id="JeDwQgU2jcd_ytCVNXyc-35" value="SuperAdmin" style="whiteSpace=wrap;html=1;align=center;" vertex="1" parent="1">
          <mxGeometry x="400" y="700" width="100" height="40" as="geometry" />
        </mxCell>
        <mxCell id="JeDwQgU2jcd_ytCVNXyc-36" value="Tenant" style="whiteSpace=wrap;html=1;align=center;" vertex="1" parent="1">
          <mxGeometry x="640" y="300" width="100" height="40" as="geometry" />
        </mxCell>
        <mxCell id="JeDwQgU2jcd_ytCVNXyc-41" value="creano" style="shape=rhombus;perimeter=rhombusPerimeter;whiteSpace=wrap;html=1;align=center;" vertex="1" parent="1">
          <mxGeometry x="180" y="430" width="120" height="60" as="geometry" />
        </mxCell>
        <mxCell id="JeDwQgU2jcd_ytCVNXyc-44" value="" style="endArrow=none;html=1;rounded=0;entryX=0.5;entryY=1;entryDx=0;entryDy=0;exitX=0.5;exitY=0;exitDx=0;exitDy=0;" edge="1" parent="1" source="JeDwQgU2jcd_ytCVNXyc-41" target="JeDwQgU2jcd_ytCVNXyc-32">
          <mxGeometry relative="1" as="geometry">
            <mxPoint x="340" y="430" as="sourcePoint" />
            <mxPoint x="500" y="430" as="targetPoint" />
          </mxGeometry>
        </mxCell>
        <mxCell id="JeDwQgU2jcd_ytCVNXyc-45" value="N" style="resizable=0;html=1;whiteSpace=wrap;align=right;verticalAlign=bottom;" connectable="0" vertex="1" parent="JeDwQgU2jcd_ytCVNXyc-44">
          <mxGeometry x="1" relative="1" as="geometry">
            <mxPoint x="-10" y="30" as="offset" />
          </mxGeometry>
        </mxCell>
        <mxCell id="JeDwQgU2jcd_ytCVNXyc-46" value="" style="endArrow=none;html=1;rounded=0;entryX=0.5;entryY=0;entryDx=0;entryDy=0;exitX=0.5;exitY=1;exitDx=0;exitDy=0;" edge="1" parent="1" source="JeDwQgU2jcd_ytCVNXyc-41" target="JeDwQgU2jcd_ytCVNXyc-31">
          <mxGeometry relative="1" as="geometry">
            <mxPoint x="310" y="690" as="sourcePoint" />
            <mxPoint x="480" y="660" as="targetPoint" />
            <Array as="points" />
          </mxGeometry>
        </mxCell>
        <mxCell id="JeDwQgU2jcd_ytCVNXyc-47" value="1" style="resizable=0;html=1;whiteSpace=wrap;align=right;verticalAlign=bottom;" connectable="0" vertex="1" parent="JeDwQgU2jcd_ytCVNXyc-46">
          <mxGeometry x="1" relative="1" as="geometry">
            <mxPoint x="-20" as="offset" />
          </mxGeometry>
        </mxCell>
        <mxCell id="JeDwQgU2jcd_ytCVNXyc-54" value="gestisce" style="shape=rhombus;perimeter=rhombusPerimeter;whiteSpace=wrap;html=1;align=center;" vertex="1" parent="1">
          <mxGeometry x="710" y="500" width="120" height="60" as="geometry" />
        </mxCell>
        <mxCell id="JeDwQgU2jcd_ytCVNXyc-57" value="" style="endArrow=none;html=1;rounded=0;entryX=0.75;entryY=1;entryDx=0;entryDy=0;exitX=0.5;exitY=0;exitDx=0;exitDy=0;" edge="1" parent="1" source="JeDwQgU2jcd_ytCVNXyc-54" target="JeDwQgU2jcd_ytCVNXyc-36">
          <mxGeometry relative="1" as="geometry">
            <mxPoint x="520" y="440" as="sourcePoint" />
            <mxPoint x="680" y="440" as="targetPoint" />
          </mxGeometry>
        </mxCell>
        <mxCell id="JeDwQgU2jcd_ytCVNXyc-58" value="N" style="resizable=0;html=1;whiteSpace=wrap;align=right;verticalAlign=bottom;" connectable="0" vertex="1" parent="JeDwQgU2jcd_ytCVNXyc-57">
          <mxGeometry x="1" relative="1" as="geometry">
            <mxPoint y="40" as="offset" />
          </mxGeometry>
        </mxCell>
        <mxCell id="JeDwQgU2jcd_ytCVNXyc-59" value="" style="endArrow=none;html=1;rounded=0;entryX=1;entryY=0.5;entryDx=0;entryDy=0;exitX=0.5;exitY=1;exitDx=0;exitDy=0;" edge="1" parent="1" source="JeDwQgU2jcd_ytCVNXyc-54" target="JeDwQgU2jcd_ytCVNXyc-35">
          <mxGeometry relative="1" as="geometry">
            <mxPoint x="610" y="640" as="sourcePoint" />
            <mxPoint x="770" y="640" as="targetPoint" />
            <Array as="points">
              <mxPoint x="770" y="720" />
            </Array>
          </mxGeometry>
        </mxCell>
        <mxCell id="JeDwQgU2jcd_ytCVNXyc-60" value="N" style="resizable=0;html=1;whiteSpace=wrap;align=right;verticalAlign=bottom;" connectable="0" vertex="1" parent="JeDwQgU2jcd_ytCVNXyc-59">
          <mxGeometry x="1" relative="1" as="geometry">
            <mxPoint x="30" as="offset" />
          </mxGeometry>
        </mxCell>
        <mxCell id="JeDwQgU2jcd_ytCVNXyc-61" value="" style="endArrow=none;html=1;rounded=0;entryX=0.25;entryY=1;entryDx=0;entryDy=0;exitX=0.5;exitY=0;exitDx=0;exitDy=0;" edge="1" parent="1" source="JeDwQgU2jcd_ytCVNXyc-63" target="JeDwQgU2jcd_ytCVNXyc-36">
          <mxGeometry relative="1" as="geometry">
            <mxPoint x="480" y="459.5" as="sourcePoint" />
            <mxPoint x="640" y="459.5" as="targetPoint" />
          </mxGeometry>
        </mxCell>
        <mxCell id="JeDwQgU2jcd_ytCVNXyc-62" value="1" style="resizable=0;html=1;whiteSpace=wrap;align=right;verticalAlign=bottom;" connectable="0" vertex="1" parent="JeDwQgU2jcd_ytCVNXyc-61">
          <mxGeometry x="1" relative="1" as="geometry">
            <mxPoint x="-15" y="40" as="offset" />
          </mxGeometry>
        </mxCell>
        <mxCell id="JeDwQgU2jcd_ytCVNXyc-63" value="supervisiona" style="shape=rhombus;perimeter=rhombusPerimeter;whiteSpace=wrap;html=1;align=center;" vertex="1" parent="1">
          <mxGeometry x="570" y="500" width="120" height="60" as="geometry" />
        </mxCell>
        <mxCell id="JeDwQgU2jcd_ytCVNXyc-69" style="edgeStyle=orthogonalEdgeStyle;rounded=0;orthogonalLoop=1;jettySize=auto;html=1;entryX=1;entryY=0.5;entryDx=0;entryDy=0;" edge="1" parent="1" source="JeDwQgU2jcd_ytCVNXyc-34" target="JeDwQgU2jcd_ytCVNXyc-31">
          <mxGeometry relative="1" as="geometry" />
        </mxCell>
        <mxCell id="JeDwQgU2jcd_ytCVNXyc-34" value="Admin" style="whiteSpace=wrap;html=1;align=center;" vertex="1" parent="1">
          <mxGeometry x="400" y="610" width="100" height="40" as="geometry" />
        </mxCell>
        <mxCell id="JeDwQgU2jcd_ytCVNXyc-65" value="" style="endArrow=none;html=1;rounded=0;entryX=1;entryY=0.5;entryDx=0;entryDy=0;exitX=0.5;exitY=1;exitDx=0;exitDy=0;" edge="1" parent="1" source="JeDwQgU2jcd_ytCVNXyc-63" target="JeDwQgU2jcd_ytCVNXyc-34">
          <mxGeometry relative="1" as="geometry">
            <mxPoint x="340" y="430" as="sourcePoint" />
            <mxPoint x="500" y="430" as="targetPoint" />
            <Array as="points">
              <mxPoint x="630" y="630" />
            </Array>
          </mxGeometry>
        </mxCell>
        <mxCell id="JeDwQgU2jcd_ytCVNXyc-66" value="N" style="resizable=0;html=1;whiteSpace=wrap;align=right;verticalAlign=bottom;" connectable="0" vertex="1" parent="JeDwQgU2jcd_ytCVNXyc-65">
          <mxGeometry x="1" relative="1" as="geometry">
            <mxPoint x="20" y="-10" as="offset" />
          </mxGeometry>
        </mxCell>
      </root>
    </mxGraphModel>
  </diagram>
</mxfile>
